<?xml version="1.0" encoding="iso-8859-1"?>
<!-- Generator: Adobe Illustrator 19.0.0, SVG Export Plug-In . SVG Version: 6.00 Build 0)  -->
<svg version="1.1" id="Layer_1" xmlns="http://www.w3.org/2000/svg" xmlns:xlink="http://www.w3.org/1999/xlink" x="0px" y="0px"
	 viewBox="0 0 300 300" style="enable-background:new 0 0 300 300;" xml:space="preserve">
<g>
	<g>
		<g>
			<path d="M280.162,159.763c1.438-2.125,1.438-4.913,0-7.044C252.95,112.85,203.531,89.05,147.95,89.05
				c-55.694,0-103.644,23.906-128.263,63.912c-1.237,2.006-1.237,4.556,0,6.563c24.619,40.025,72.569,63.919,128.263,63.919
				C203.519,223.444,252.95,199.638,280.162,159.763z M147.95,210.944c-49.756,0-92.6-20.375-115.525-54.694
				c22.913-34.319,65.769-54.688,115.525-54.688c49.763,0,94.025,20.362,119.394,54.688
				C241.975,190.575,197.712,210.944,147.95,210.944z"/>
			<path d="M150,118.75c-20.681,0-37.5,16.819-37.5,37.5s16.819,37.5,37.5,37.5s37.506-16.819,37.506-37.5
				S170.681,118.75,150,118.75z M150,181.25c-13.787,0-25-11.213-25-25s11.213-25,25-25s25.006,11.213,25.006,25
				S163.787,181.25,150,181.25z"/>
			<path d="M6.25,93.75c3.456,0,6.25-2.794,6.25-6.25v-25h31.25c3.456,0,6.25-2.794,6.25-6.25S47.206,50,43.75,50H6.25
				C2.794,50,0,52.794,0,56.25V87.5C0,90.956,2.794,93.75,6.25,93.75z"/>
			<path d="M293.75,50h-25c-3.456,0-6.25,2.794-6.25,6.25s2.794,6.25,6.25,6.25h18.75v25c0,3.456,2.794,6.25,6.25,6.25
				S300,90.956,300,87.5V56.25C300,52.794,297.206,50,293.75,50z"/>
			<path d="M43.75,237.5H12.5v-25c0-3.456-2.794-6.25-6.25-6.25S0,209.044,0,212.5v31.25c0,3.456,2.794,6.25,6.25,6.25h37.5
				c3.456,0,6.25-2.794,6.25-6.25S47.206,237.5,43.75,237.5z"/>
			<path d="M293.75,206.25c-3.456,0-6.25,2.794-6.25,6.25v25h-18.75c-3.456,0-6.25,2.794-6.25,6.25s2.794,6.25,6.25,6.25h25
				c3.456,0,6.25-2.794,6.25-6.25V212.5C300,209.044,297.206,206.25,293.75,206.25z"/>
		</g>
	</g>
</g>
<g>
</g>
<g>
</g>
<g>
</g>
<g>
</g>
<g>
</g>
<g>
</g>
<g>
</g>
<g>
</g>
<g>
</g>
<g>
</g>
<g>
</g>
<g>
</g>
<g>
</g>
<g>
</g>
<g>
</g>
</svg>
