<?xml version="1.0" encoding="iso-8859-1"?>
<!-- Generator: Adobe Illustrator 19.0.0, SVG Export Plug-In . SVG Version: 6.00 Build 0)  -->
<svg version="1.1" id="Capa_1" xmlns="http://www.w3.org/2000/svg" xmlns:xlink="http://www.w3.org/1999/xlink" x="0px" y="0px"
	 viewBox="0 0 490 490" style="enable-background:new 0 0 490 490;" xml:space="preserve">
<g id="Black_22_">
	<path d="M444.138,259.21c-25.343,0-45.878,20.535-45.878,45.878c0,5.865,1.21,11.439,3.216,16.599l-62.615,54.652
		c-6.661-3.767-14.256-6.095-22.449-6.095c-10.934,0-20.826,3.981-28.712,10.352l-104.266-65.601
		c0.704-3.185,1.133-6.477,1.133-9.892c0-25.343-20.535-45.878-45.878-45.878c-25.343,0-45.878,20.535-45.878,45.878
		c0,8.713,2.573,16.783,6.784,23.72l-37.287,44.576c-5.115-1.975-10.612-3.154-16.431-3.154C20.535,370.229,0,390.764,0,416.107
		c0,25.343,20.535,45.878,45.878,45.878c25.343,0,45.878-20.535,45.878-45.878c0-8.315-2.389-16.002-6.248-22.725l37.854-45.234
		c4.824,1.715,9.923,2.817,15.328,2.817c10.78,0,20.565-3.874,28.39-10.107l104.45,65.723c-0.643,3.078-1.011,6.248-1.011,9.509
		c0,25.343,20.535,45.878,45.878,45.878c25.343,0,45.878-20.535,45.878-45.878c0-5.926-1.21-11.546-3.262-16.752l62.523-54.56
		c6.692,3.813,14.333,6.171,22.587,6.171c25.343,0,45.878-20.535,45.878-45.878C490.015,279.745,469.48,259.21,444.138,259.21z"/>
	<polygon points="186.604,235.644 214.52,235.644 318.525,28.015 291.421,28.015 	"/>
	<path d="M185.792,28.015c-13.23,0-23.735,4.257-31.468,12.756c-7.733,8.499-11.592,21.561-11.592,39.186
		c0,17.717,3.859,30.81,11.607,39.247c7.733,8.468,18.452,12.679,32.142,12.679c13.246,0,23.735-4.242,31.484-12.74
		c7.733-8.499,11.607-21.561,11.607-39.201c0-17.702-3.874-30.794-11.607-39.232C210.201,32.242,199.497,28.015,185.792,28.015z
		 M195.21,105.468c-2.236,3.216-5.375,4.824-9.402,4.824c-3.936,0-7.013-1.608-9.249-4.824c-2.955-4.38-4.441-12.985-4.441-25.772
		c0-12.802,1.485-21.377,4.425-25.787c2.236-3.216,5.329-4.824,9.249-4.824c4.043,0,7.166,1.654,9.402,4.961
		c2.864,4.303,4.288,12.848,4.288,25.649C199.497,92.483,198.058,101.089,195.21,105.468z"/>
	<path d="M287.057,223.286c7.748,8.499,18.452,12.741,32.157,12.741c13.23,0,23.735-4.242,31.468-12.741
		c7.748-8.499,11.622-21.606,11.622-39.324c0-17.61-3.874-30.687-11.622-39.186c-7.733-8.499-18.36-12.756-31.866-12.756
		c-13.429,0-23.995,4.257-31.744,12.756c-7.733,8.499-11.607,21.561-11.607,39.186C275.45,201.68,279.324,214.788,287.057,223.286z
		 M309.276,158.053c2.144-3.216,5.237-4.824,9.249-4.824c4.012,0,7.151,1.608,9.387,4.824c2.879,4.395,4.288,12.985,4.288,25.787
		c0,12.786-1.47,21.377-4.426,25.772c-2.144,3.216-5.237,4.824-9.249,4.824c-3.935,0-7.029-1.654-9.249-4.961
		c-2.955-4.303-4.426-12.848-4.426-25.634C304.851,171.038,306.321,162.448,309.276,158.053z"/>
</g>
<g>
</g>
<g>
</g>
<g>
</g>
<g>
</g>
<g>
</g>
<g>
</g>
<g>
</g>
<g>
</g>
<g>
</g>
<g>
</g>
<g>
</g>
<g>
</g>
<g>
</g>
<g>
</g>
<g>
</g>
</svg>
